<svg xmlns="http://www.w3.org/2000/svg" xmlns:xlink="http://www.w3.org/1999/xlink" width="2000" zoomAndPan="magnify" viewBox="0 0 1500 1499.999933" height="2000" preserveAspectRatio="xMidYMid meet" version="1.0"><defs><g/><clipPath id="28d8316922"><rect x="0" width="950" y="0" height="214"/></clipPath><clipPath id="0e568fe6cb"><path d="M 290 541.28125 L 397 541.28125 L 397 848 L 290 848 Z M 290 541.28125 " clip-rule="nonzero"/></clipPath></defs><g transform="matrix(1, 0, 0, 1, 448, 633)"><g clip-path="url(#28d8316922)"><g fill="#000000" fill-opacity="1"><g transform="translate(0.951958, 171.948652)"><g><path d="M 91.4375 3.375 C 82.175781 3.375 73.367188 1.976562 65.015625 -0.8125 C 56.660156 -3.613281 49.003906 -7.539062 42.046875 -12.59375 C 35.085938 -17.644531 29.039062 -23.609375 23.90625 -30.484375 C 18.769531 -37.367188 14.800781 -44.953125 12 -53.234375 C 9.207031 -61.515625 7.8125 -70.242188 7.8125 -79.421875 C 7.8125 -88.671875 9.207031 -97.453125 12 -105.765625 C 14.800781 -114.085938 18.785156 -121.6875 23.953125 -128.5625 C 29.128906 -135.445312 35.21875 -141.414062 42.21875 -146.46875 C 49.21875 -151.53125 56.914062 -155.441406 65.3125 -158.203125 C 73.707031 -160.960938 82.570312 -162.34375 91.90625 -162.34375 C 98.582031 -162.34375 105.300781 -161.546875 112.0625 -159.953125 C 118.832031 -158.359375 125.304688 -156.003906 131.484375 -152.890625 C 137.671875 -149.785156 143.328125 -145.957031 148.453125 -141.40625 C 153.585938 -136.851562 157.960938 -131.640625 161.578125 -125.765625 C 165.191406 -119.898438 167.738281 -113.394531 169.21875 -106.25 L 139.71875 -106.25 C 135.59375 -115.5 129.289062 -122.726562 120.8125 -127.9375 C 112.34375 -133.144531 102.472656 -135.75 91.203125 -135.75 C 83.734375 -135.75 76.691406 -134.40625 70.078125 -131.71875 C 63.472656 -129.039062 57.679688 -125.210938 52.703125 -120.234375 C 47.734375 -115.265625 43.828125 -109.335938 40.984375 -102.453125 C 38.148438 -95.566406 36.734375 -87.890625 36.734375 -79.421875 C 36.734375 -70.785156 38.148438 -63.023438 40.984375 -56.140625 C 43.828125 -49.265625 47.734375 -43.378906 52.703125 -38.484375 C 57.679688 -33.585938 63.472656 -29.835938 70.078125 -27.234375 C 76.691406 -24.628906 83.734375 -23.328125 91.203125 -23.328125 C 100.679688 -23.328125 108.878906 -24.9375 115.796875 -28.15625 C 122.722656 -31.382812 128.34375 -35.835938 132.65625 -41.515625 C 136.96875 -47.191406 139.863281 -53.722656 141.34375 -61.109375 L 90.03125 -61.109375 L 90.03125 -85.375 L 172.828125 -85.375 C 172.910156 -72.382812 171.160156 -60.46875 167.578125 -49.625 C 164.003906 -38.78125 158.71875 -29.390625 151.71875 -21.453125 C 144.726562 -13.523438 136.175781 -7.40625 126.0625 -3.09375 C 115.957031 1.21875 104.414062 3.375 91.4375 3.375 Z M 91.4375 3.375 "/></g></g></g><g fill="#000000" fill-opacity="1"><g transform="translate(167.507736, 171.948652)"><g><path d="M 70.4375 3.609375 C 62.425781 3.609375 55 2.5 48.15625 0.28125 C 41.320312 -1.925781 35.335938 -5.398438 30.203125 -10.140625 C 25.078125 -14.890625 21.09375 -21.035156 18.25 -28.578125 C 15.414062 -36.117188 14 -45.210938 14 -55.859375 L 14 -119.890625 L 41.984375 -119.890625 L 41.984375 -56.671875 C 41.984375 -45.640625 44.351562 -37.207031 49.09375 -31.375 C 53.84375 -25.539062 60.921875 -22.625 70.328125 -22.625 C 79.804688 -22.625 86.878906 -25.554688 91.546875 -31.421875 C 96.210938 -37.296875 98.546875 -45.710938 98.546875 -56.671875 L 98.546875 -119.890625 L 126.65625 -119.890625 L 126.65625 -55.859375 C 126.65625 -45.210938 125.234375 -36.117188 122.390625 -28.578125 C 119.554688 -21.035156 115.570312 -14.890625 110.4375 -10.140625 C 105.3125 -5.398438 99.34375 -1.925781 92.53125 0.28125 C 85.726562 2.5 78.363281 3.609375 70.4375 3.609375 Z M 70.4375 3.609375 "/></g></g></g><g fill="#000000" fill-opacity="1"><g transform="translate(294.062151, 171.948652)"><g><path d="M 30.4375 -138.546875 C 25 -138.546875 20.742188 -140.117188 17.671875 -143.265625 C 14.597656 -146.421875 13.0625 -150.253906 13.0625 -154.765625 C 13.0625 -159.117188 14.597656 -162.890625 17.671875 -166.078125 C 20.742188 -169.265625 25.039062 -170.859375 30.5625 -170.859375 C 36.226562 -170.859375 40.597656 -169.265625 43.671875 -166.078125 C 46.742188 -162.890625 48.28125 -159.117188 48.28125 -154.765625 C 48.28125 -150.253906 46.742188 -146.421875 43.671875 -143.265625 C 40.597656 -140.117188 36.1875 -138.546875 30.4375 -138.546875 Z M 44.78125 0 L 16.5625 0 L 16.5625 -119.890625 L 44.78125 -119.890625 Z M 44.78125 0 "/></g></g></g><g fill="#000000" fill-opacity="1"><g transform="translate(341.196991, 171.948652)"><g><path d="M 66.015625 3.609375 C 57.535156 3.609375 49.738281 1.976562 42.625 -1.28125 C 35.507812 -4.550781 29.382812 -9.097656 24.25 -14.921875 C 19.125 -20.753906 15.140625 -27.519531 12.296875 -35.21875 C 9.460938 -42.914062 8.046875 -51.15625 8.046875 -59.9375 C 8.046875 -68.726562 9.425781 -76.953125 12.1875 -84.609375 C 14.945312 -92.265625 18.910156 -99.007812 24.078125 -104.84375 C 29.253906 -110.675781 35.414062 -115.242188 42.5625 -118.546875 C 49.71875 -121.847656 57.648438 -123.5 66.359375 -123.5 C 72.890625 -123.5 78.816406 -122.351562 84.140625 -120.0625 C 89.460938 -117.769531 94.046875 -114.851562 97.890625 -111.3125 C 101.742188 -107.78125 104.722656 -104.109375 106.828125 -100.296875 L 106.25 -112.78125 L 106.25 -164.203125 L 134.34375 -164.203125 L 134.34375 0 L 107.53125 0 L 107.53125 -20.171875 C 105.195312 -15.972656 102.046875 -12.066406 98.078125 -8.453125 C 94.109375 -4.835938 89.441406 -1.925781 84.078125 0.28125 C 78.710938 2.5 72.691406 3.609375 66.015625 3.609375 Z M 71.140625 -22.390625 C 76.035156 -22.390625 80.617188 -23.34375 84.890625 -25.25 C 89.171875 -27.15625 92.925781 -29.816406 96.15625 -33.234375 C 99.382812 -36.660156 101.910156 -40.644531 103.734375 -45.1875 C 105.566406 -49.738281 106.484375 -54.65625 106.484375 -59.9375 C 106.484375 -65.226562 105.585938 -70.128906 103.796875 -74.640625 C 102.003906 -79.148438 99.492188 -83.113281 96.265625 -86.53125 C 93.046875 -89.957031 89.296875 -92.617188 85.015625 -94.515625 C 80.742188 -96.421875 76.117188 -97.375 71.140625 -97.375 C 64.535156 -97.375 58.550781 -95.757812 53.1875 -92.53125 C 47.820312 -89.3125 43.582031 -84.898438 40.46875 -79.296875 C 37.351562 -73.703125 35.796875 -67.25 35.796875 -59.9375 C 35.796875 -52.863281 37.3125 -46.488281 40.34375 -40.8125 C 43.382812 -35.132812 47.566406 -30.644531 52.890625 -27.34375 C 58.210938 -24.039062 64.296875 -22.390625 71.140625 -22.390625 Z M 71.140625 -22.390625 "/></g></g></g><g fill="#000000" fill-opacity="1"><g transform="translate(477.89752, 171.948652)"><g><path d="M 130.625 -62.046875 C 130.625 -60.566406 130.582031 -59.164062 130.5 -57.84375 C 130.425781 -56.519531 130.269531 -54.734375 130.03125 -52.484375 L 36.390625 -52.484375 C 37.398438 -45.953125 39.476562 -40.390625 42.625 -35.796875 C 45.769531 -31.210938 49.675781 -27.695312 54.34375 -25.25 C 59.007812 -22.800781 64.101562 -21.578125 69.625 -21.578125 C 76.78125 -21.578125 82.570312 -22.992188 87 -25.828125 C 91.425781 -28.671875 94.65625 -32.617188 96.6875 -37.671875 L 127.46875 -37.671875 C 125.988281 -32.304688 123.554688 -27.132812 120.171875 -22.15625 C 116.796875 -17.175781 112.65625 -12.765625 107.75 -8.921875 C 102.851562 -5.078125 97.238281 -2.03125 90.90625 0.21875 C 84.570312 2.476562 77.671875 3.609375 70.203125 3.609375 C 61.179688 3.609375 52.878906 1.957031 45.296875 -1.34375 C 37.722656 -4.644531 31.15625 -9.210938 25.59375 -15.046875 C 20.039062 -20.878906 15.726562 -27.640625 12.65625 -35.328125 C 9.582031 -43.023438 8.046875 -51.226562 8.046875 -59.9375 C 8.046875 -68.726562 9.582031 -76.953125 12.65625 -84.609375 C 15.726562 -92.265625 20.039062 -99.007812 25.59375 -104.84375 C 31.15625 -110.675781 37.722656 -115.242188 45.296875 -118.546875 C 52.878906 -121.847656 61.179688 -123.5 70.203125 -123.5 C 79.222656 -123.5 87.445312 -121.863281 94.875 -118.59375 C 102.300781 -115.332031 108.675781 -110.84375 114 -105.125 C 119.320312 -99.414062 123.421875 -92.867188 126.296875 -85.484375 C 129.179688 -78.097656 130.625 -70.285156 130.625 -62.046875 Z M 37.546875 -74.28125 L 101.8125 -74.28125 C 101.425781 -78.789062 99.753906 -82.890625 96.796875 -86.578125 C 93.835938 -90.273438 90.023438 -93.25 85.359375 -95.5 C 80.703125 -97.757812 75.613281 -98.890625 70.09375 -98.890625 C 65.34375 -98.890625 60.789062 -98.015625 56.4375 -96.265625 C 52.09375 -94.515625 48.265625 -91.832031 44.953125 -88.21875 C 41.648438 -84.601562 39.179688 -79.957031 37.546875 -74.28125 Z M 37.546875 -74.28125 "/></g></g></g><g fill="#000000" fill-opacity="1"><g transform="translate(600.836683, 171.948652)"><g/></g></g><g fill="#000000" fill-opacity="1"><g transform="translate(644.939296, 171.948652)"><g><path d="M 47.9375 0 L 18.890625 0 L 18.890625 -158.609375 L 87.34375 -158.609375 C 95.351562 -158.609375 102.71875 -157.382812 109.4375 -154.9375 C 116.164062 -152.488281 121.976562 -148.96875 126.875 -144.375 C 131.78125 -139.789062 135.59375 -134.328125 138.3125 -127.984375 C 141.03125 -121.648438 142.390625 -114.632812 142.390625 -106.9375 C 142.390625 -99.476562 141.046875 -92.675781 138.359375 -86.53125 C 135.679688 -80.394531 131.929688 -75.128906 127.109375 -70.734375 C 122.296875 -66.335938 116.625 -63.015625 110.09375 -60.765625 L 146.015625 0 L 112.65625 0 L 81.28125 -56.328125 C 80.269531 -56.253906 79.257812 -56.21875 78.25 -56.21875 C 77.238281 -56.21875 76.191406 -56.21875 75.109375 -56.21875 L 47.9375 -56.21875 Z M 47.9375 -132.71875 L 47.9375 -80.703125 L 86.296875 -80.703125 C 91.429688 -80.773438 96.039062 -81.921875 100.125 -84.140625 C 104.207031 -86.359375 107.429688 -89.429688 109.796875 -93.359375 C 112.171875 -97.285156 113.359375 -101.8125 113.359375 -106.9375 C 113.359375 -111.757812 112.148438 -116.113281 109.734375 -120 C 107.328125 -123.894531 104.082031 -126.988281 100 -129.28125 C 95.914062 -131.570312 91.3125 -132.71875 86.1875 -132.71875 Z M 47.9375 -132.71875 "/></g></g></g><g fill="#000000" fill-opacity="1"><g transform="translate(781.873133, 171.948652)"><g><path d="M 91.4375 3.375 C 82.101562 3.375 73.238281 2 64.84375 -0.75 C 56.445312 -3.507812 48.769531 -7.414062 41.8125 -12.46875 C 34.851562 -17.53125 28.828125 -23.519531 23.734375 -30.4375 C 18.640625 -37.351562 14.691406 -44.972656 11.890625 -53.296875 C 9.097656 -61.617188 7.703125 -70.363281 7.703125 -79.53125 C 7.703125 -88.789062 9.097656 -97.554688 11.890625 -105.828125 C 14.691406 -114.109375 18.640625 -121.6875 23.734375 -128.5625 C 28.828125 -135.445312 34.851562 -141.414062 41.8125 -146.46875 C 48.769531 -151.53125 56.445312 -155.441406 64.84375 -158.203125 C 73.238281 -160.960938 82.101562 -162.34375 91.4375 -162.34375 C 99.832031 -162.34375 108.148438 -161.097656 116.390625 -158.609375 C 124.628906 -156.117188 132.320312 -152.328125 139.46875 -147.234375 C 146.625 -142.140625 152.691406 -135.703125 157.671875 -127.921875 C 162.648438 -120.148438 166.070312 -110.976562 167.9375 -100.40625 L 138.3125 -100.40625 C 136.21875 -108.570312 132.851562 -115.257812 128.21875 -120.46875 C 123.59375 -125.675781 118.050781 -129.523438 111.59375 -132.015625 C 105.144531 -134.503906 98.148438 -135.75 90.609375 -135.75 C 83.148438 -135.75 76.15625 -134.40625 69.625 -131.71875 C 63.09375 -129.039062 57.359375 -125.210938 52.421875 -120.234375 C 47.484375 -115.265625 43.632812 -109.335938 40.875 -102.453125 C 38.113281 -95.566406 36.734375 -87.890625 36.734375 -79.421875 C 36.734375 -70.785156 38.113281 -63.023438 40.875 -56.140625 C 43.632812 -49.265625 47.484375 -43.378906 52.421875 -38.484375 C 57.359375 -33.585938 63.09375 -29.835938 69.625 -27.234375 C 76.15625 -24.628906 83.148438 -23.328125 90.609375 -23.328125 C 98.148438 -23.328125 105.128906 -24.566406 111.546875 -27.046875 C 117.960938 -29.535156 123.503906 -33.382812 128.171875 -38.59375 C 132.835938 -43.8125 136.179688 -50.460938 138.203125 -58.546875 L 167.9375 -58.546875 C 166.070312 -47.972656 162.648438 -38.78125 157.671875 -30.96875 C 152.691406 -23.15625 146.664062 -16.71875 139.59375 -11.65625 C 132.519531 -6.601562 124.84375 -2.832031 116.5625 -0.34375 C 108.28125 2.132812 99.90625 3.375 91.4375 3.375 Z M 91.4375 3.375 "/></g></g></g></g></g><path fill="#0149ed" d="M 153.128906 678.617188 C 151.078125 676.910156 86.800781 634.566406 80.460938 631.203125 C 72.507812 626.984375 65.722656 631.542969 65.1875 640.808594 C 65.058594 642.972656 65.746094 746.402344 65.792969 753.378906 C 64.929688 767.003906 69.011719 778.824219 78.636719 788.625 C 83.304688 793.417969 169.136719 847.414062 169.21875 847.238281 C 170.636719 845.957031 171.160156 732.296875 170.203125 725.90625 C 172.660156 707.199219 168.023438 691.042969 153.128906 678.617188 Z M 153.128906 678.617188 " fill-opacity="1" fill-rule="nonzero"/><path fill="#d9d9d9" d="M 283.160156 842.636719 C 283.285156 824.886719 283.554688 689.007812 283.480469 687.644531 C 282.867188 672.253906 276.613281 659.503906 263.855469 650.996094 C 241.875 636.335938 193.476562 606.214844 191.863281 605.585938 C 190.007812 604.753906 188.234375 604.398438 186.601562 604.476562 C 185.117188 604.496094 183.808594 604.871094 182.695312 605.605469 C 179.773438 607.3125 177.8125 610.835938 177.535156 615.632812 C 177.429688 617.433594 177.800781 840.347656 177.710938 848.792969 C 177.671875 852.191406 178.382812 854.214844 181.785156 856.207031 C 194.859375 863.890625 207.691406 872.003906 220.335938 880.382812 C 227.746094 885.296875 234.488281 885.164062 241.789062 880.355469 C 252.691406 873.179688 263.527344 865.820312 274.953125 859.5625 C 282.316406 855.53125 285.304688 850.660156 283.160156 842.636719 Z M 283.160156 842.636719 " fill-opacity="1" fill-rule="nonzero"/><g clip-path="url(#0e568fe6cb)"><path fill="#ff3131" d="M 396.476562 632.746094 C 396.65625 629.890625 396.675781 627.097656 396.480469 624.375 C 396.480469 624.183594 396.480469 623.992188 396.480469 623.804688 C 395.472656 606.773438 387.378906 593.875 373.332031 584.601562 C 357.808594 574.351562 342.394531 563.90625 326.476562 554.292969 C 319.96875 550.367188 313.691406 545.871094 306.410156 543.136719 C 306.371094 543.117188 306.308594 543.078125 306.269531 543.058594 C 304.054688 541.882812 301.933594 541.410156 300.007812 541.507812 C 296.90625 541.3125 294.734375 542.433594 293.429688 545.136719 C 292.054688 547.027344 291.171875 549.574219 290.992188 552.660156 C 290.945312 553.496094 292.171875 828.375 291.894531 846.726562 C 293.390625 849.023438 294.9375 847.511719 296.28125 846.648438 C 317.003906 833.304688 337.699219 819.921875 358.402344 806.542969 C 378.316406 796.691406 394.34375 783.464844 396.332031 759.449219 C 397.140625 749.714844 396.476562 642.71875 396.476562 632.746094 Z M 396.476562 632.746094 " fill-opacity="1" fill-rule="nonzero"/></g></svg>